<svg xmlns="http://www.w3.org/2000/svg" aria-hidden="true" style="position:absolute;width:0;height:0;overflow:hidden">
  <defs>
 <symbol id="icon-login" viewBox="0 0 32 32">
<path d="M16 16c1.582 0 3.129-0.469 4.445-1.348s2.341-2.128 2.947-3.59c0.605-1.462 0.764-3.070 0.455-4.622s-1.070-2.977-2.189-4.096-2.544-1.881-4.096-2.189c-1.552-0.309-3.16-0.15-4.622 0.455s-2.711 1.631-3.59 2.946c-0.879 1.316-1.348 2.862-1.348 4.445 0.002 2.121 0.846 4.155 2.345 5.655s3.533 2.343 5.655 2.346zM16 2.667c1.055 0 2.086 0.313 2.963 0.899s1.561 1.419 1.964 2.394c0.404 0.975 0.509 2.047 0.303 3.081s-0.714 1.985-1.46 2.731c-0.746 0.746-1.696 1.254-2.731 1.46s-2.107 0.1-3.081-0.303c-0.975-0.404-1.808-1.087-2.394-1.964s-0.899-1.908-0.899-2.963c0-1.415 0.562-2.771 1.562-3.771s2.357-1.562 3.771-1.562v0z"></path>
<path d="M16 18.667c-3.181 0.004-6.232 1.269-8.481 3.519s-3.515 5.3-3.519 8.481c0 0.354 0.14 0.693 0.391 0.943s0.589 0.39 0.943 0.39c0.354 0 0.693-0.14 0.943-0.39s0.391-0.589 0.391-0.943c0-2.475 0.983-4.849 2.734-6.6s4.124-2.734 6.6-2.734 4.849 0.983 6.6 2.734c1.75 1.75 2.734 4.124 2.734 6.6 0 0.354 0.141 0.693 0.391 0.943s0.589 0.39 0.943 0.39c0.354 0 0.693-0.14 0.943-0.39s0.391-0.589 0.391-0.943c-0.003-3.181-1.269-6.232-3.519-8.481s-5.3-3.515-8.481-3.519v0z"></path>
</symbol>
<symbol id="burger-icon" viewBox="0 0 32 32">
<path d="M30 14h-28c-1.105 0-2 0.895-2 2s0.895 2 2 2h28c1.105 0 2-0.895 2-2s-0.895-2-2-2z"></path>
<path d="M2 8.667h28c1.105 0 2-0.895 2-2s-0.895-2-2-2h-28c-1.105 0-2 0.895-2 2s0.895 2 2 2z"></path>
<path d="M30 23.333h-28c-1.105 0-2 0.895-2 2s0.895 2 2 2h28c1.105 0 2-0.895 2-2s-0.895-2-2-2z"></path>
</symbol>
<symbol id="icon-close-modal" viewBox="0 0 32 32">
<path stroke-linejoin="round" stroke-linecap="round" stroke-miterlimit="4" stroke-width="2.3529" d="M24 8l-16 16"></path>
<path stroke-linejoin="round" stroke-linecap="round" stroke-miterlimit="4" stroke-width="2.3529" d="M8 8l16 16"></path>
</symbol>
<symbol id="icon-facebook" viewBox="0 0 32 32">
<path d="M20.796 6.382h2.629v-4.579c-0.454-0.062-2.014-0.203-3.83-0.203-3.791 0-6.388 2.384-6.388 6.767v4.033h-4.183v5.119h4.183v12.881h5.129v-12.88h4.014l0.637-5.119h-4.652v-3.527c0.001-1.48 0.4-2.492 2.461-2.492v0z"></path>
</symbol>
<symbol id="icon-instagram" viewBox="0 0 32 32">
<path d="M30.372 10.067c-0.067-1.53-0.315-2.582-0.669-3.494-0.366-0.968-0.928-1.834-1.665-2.554-0.72-0.731-1.592-1.3-2.549-1.66-0.917-0.354-1.964-0.602-3.494-0.669-1.542-0.073-2.031-0.090-5.941-0.090s-4.4 0.017-5.936 0.084c-1.53 0.067-2.582 0.315-3.494 0.669-0.968 0.366-1.834 0.928-2.554 1.665-0.731 0.72-1.3 1.592-1.66 2.549-0.354 0.917-0.602 1.963-0.669 3.494-0.073 1.542-0.090 2.031-0.090 5.941s0.017 4.399 0.084 5.935c0.067 1.53 0.315 2.582 0.67 3.494 0.366 0.968 0.934 1.834 1.665 2.554 0.72 0.731 1.592 1.3 2.549 1.66 0.917 0.354 1.963 0.602 3.494 0.669 1.536 0.068 2.025 0.084 5.936 0.084s4.399-0.017 5.936-0.084c1.53-0.067 2.582-0.315 3.494-0.669 1.936-0.748 3.466-2.279 4.214-4.214 0.354-0.917 0.602-1.964 0.669-3.494 0.067-1.536 0.084-2.025 0.084-5.935s-0.006-4.4-0.073-5.936zM27.778 21.826c-0.062 1.406-0.298 2.166-0.495 2.672-0.484 1.255-1.48 2.25-2.734 2.734-0.506 0.197-1.271 0.433-2.672 0.495-1.519 0.068-1.975 0.084-5.817 0.084s-4.304-0.017-5.817-0.084c-1.407-0.062-2.166-0.298-2.672-0.495-0.624-0.231-1.193-0.596-1.654-1.075-0.478-0.467-0.844-1.030-1.075-1.654-0.197-0.506-0.433-1.272-0.495-2.672-0.068-1.519-0.084-1.975-0.084-5.817s0.017-4.304 0.084-5.817c0.062-1.407 0.298-2.166 0.495-2.672 0.231-0.625 0.596-1.193 1.080-1.654 0.467-0.478 1.029-0.844 1.654-1.074 0.506-0.197 1.272-0.433 2.672-0.495 1.519-0.067 1.975-0.084 5.817-0.084 3.848 0 4.304 0.017 5.818 0.084 1.406 0.062 2.166 0.298 2.672 0.495 0.624 0.231 1.193 0.596 1.654 1.074 0.478 0.467 0.844 1.030 1.075 1.654 0.197 0.506 0.433 1.271 0.495 2.672 0.067 1.519 0.084 1.975 0.084 5.817s-0.017 4.293-0.084 5.812z"></path>
<path d="M16.053 8.604c-4.084 0-7.398 3.314-7.398 7.398s3.314 7.398 7.398 7.398c4.085 0 7.398-3.314 7.398-7.398s-3.314-7.398-7.398-7.398zM16.053 20.802c-2.65 0-4.799-2.149-4.799-4.799s2.149-4.799 4.799-4.799c2.65 0 4.799 2.149 4.799 4.799s-2.149 4.799-4.799 4.799v0z"></path>
<path d="M25.471 8.312c0 0.954-0.773 1.727-1.727 1.727s-1.727-0.773-1.727-1.727c0-0.954 0.773-1.727 1.727-1.727s1.727 0.773 1.727 1.727v0z"></path>
</symbol>
<symbol id="icon-linkedin" viewBox="0 0 32 32">
<path d="M30.393 30.4v-0.001h0.007v-10.562c0-5.167-1.112-9.148-7.153-9.148-2.904 0-4.853 1.594-5.648 3.104h-0.084v-2.622h-5.728v19.228h5.964v-9.521c0-2.507 0.475-4.931 3.58-4.931 3.059 0 3.104 2.861 3.104 5.092v9.361h5.958z"></path>
<path d="M2.075 11.172h5.971v19.228h-5.971v-19.228z"></path>
<path d="M5.059 1.6c-1.909 0-3.458 1.549-3.458 3.458s1.549 3.491 3.458 3.491c1.909 0 3.458-1.582 3.458-3.491-0.001-1.909-1.55-3.458-3.458-3.458v0z"></path>
</symbol>
<symbol id="icon-twitter" viewBox="0 0 32 32">
<path d="M30.4 7.070c-1.071 0.47-2.212 0.781-3.402 0.932 1.224-0.731 2.158-1.879 2.597-3.263-1.141 0.68-2.401 1.161-3.744 1.429-1.084-1.154-2.628-1.868-4.313-1.868-3.269 0-5.9 2.653-5.9 5.906 0 0.468 0.040 0.918 0.137 1.346-4.909-0.239-9.252-2.592-12.17-6.176-0.509 0.884-0.808 1.895-0.808 2.984 0 2.045 1.053 3.857 2.623 4.907-0.949-0.018-1.879-0.293-2.668-0.727 0 0.018 0 0.041 0 0.065 0 2.869 2.047 5.252 4.73 5.801-0.481 0.131-1.004 0.194-1.548 0.194-0.378 0-0.76-0.022-1.118-0.101 0.765 2.338 2.936 4.057 5.517 4.113-2.009 1.571-4.559 2.518-7.321 2.518-0.484 0-0.949-0.022-1.413-0.081 2.615 1.687 5.715 2.65 9.058 2.65 10.865 0 16.805-9 16.805-16.801 0-0.261-0.009-0.513-0.022-0.763 1.172-0.832 2.156-1.87 2.959-3.065z"></path>
</symbol>
  </defs>
</svg>