<svg xmlns="http://www.w3.org/2000/svg" aria-hidden="true" style="position:absolute;width:0;height:0;overflow:hidden">
  <defs>
 <symbol id="icon-login" viewBox="0 0 32 32">
<path d="M16 16c1.582 0 3.129-0.469 4.445-1.348s2.341-2.128 2.947-3.59c0.605-1.462 0.764-3.070 0.455-4.622s-1.070-2.977-2.189-4.096-2.544-1.881-4.096-2.189c-1.552-0.309-3.16-0.15-4.622 0.455s-2.711 1.631-3.59 2.946c-0.879 1.316-1.348 2.862-1.348 4.445 0.002 2.121 0.846 4.155 2.345 5.655s3.533 2.343 5.655 2.346zM16 2.667c1.055 0 2.086 0.313 2.963 0.899s1.561 1.419 1.964 2.394c0.404 0.975 0.509 2.047 0.303 3.081s-0.714 1.985-1.46 2.731c-0.746 0.746-1.696 1.254-2.731 1.46s-2.107 0.1-3.081-0.303c-0.975-0.404-1.808-1.087-2.394-1.964s-0.899-1.908-0.899-2.963c0-1.415 0.562-2.771 1.562-3.771s2.357-1.562 3.771-1.562v0z"></path>
<path d="M16 18.667c-3.181 0.004-6.232 1.269-8.481 3.519s-3.515 5.3-3.519 8.481c0 0.354 0.14 0.693 0.391 0.943s0.589 0.39 0.943 0.39c0.354 0 0.693-0.14 0.943-0.39s0.391-0.589 0.391-0.943c0-2.475 0.983-4.849 2.734-6.6s4.124-2.734 6.6-2.734 4.849 0.983 6.6 2.734c1.75 1.75 2.734 4.124 2.734 6.6 0 0.354 0.141 0.693 0.391 0.943s0.589 0.39 0.943 0.39c0.354 0 0.693-0.14 0.943-0.39s0.391-0.589 0.391-0.943c-0.003-3.181-1.269-6.232-3.519-8.481s-5.3-3.515-8.481-3.519v0z"></path>
</symbol>
<symbol id="burger-icon" viewBox="0 0 32 32">
<path d="M30 14h-28c-1.105 0-2 0.895-2 2s0.895 2 2 2h28c1.105 0 2-0.895 2-2s-0.895-2-2-2z"></path>
<path d="M2 8.667h28c1.105 0 2-0.895 2-2s-0.895-2-2-2h-28c-1.105 0-2 0.895-2 2s0.895 2 2 2z"></path>
<path d="M30 23.333h-28c-1.105 0-2 0.895-2 2s0.895 2 2 2h28c1.105 0 2-0.895 2-2s-0.895-2-2-2z"></path>
</symbol>
<symbol id="icon-close-modal" viewBox="0 0 32 32">
<path stroke-linejoin="round" stroke-linecap="round" stroke-miterlimit="4" stroke-width="2.3529" d="M24 8l-16 16"></path>
<path stroke-linejoin="round" stroke-linecap="round" stroke-miterlimit="4" stroke-width="2.3529" d="M8 8l16 16"></path>
</symbol>
<symbol id="icon-facebook" viewBox="0 0 32 32">
<path d="M20.796 6.382h2.629v-4.579c-0.454-0.062-2.014-0.203-3.83-0.203-3.791 0-6.388 2.384-6.388 6.767v4.033h-4.183v5.119h4.183v12.881h5.129v-12.88h4.014l0.637-5.119h-4.652v-3.527c0.001-1.48 0.4-2.492 2.461-2.492v0z"></path>
</symbol>
<symbol id="icon-instagram" viewBox="0 0 32 32">
<path d="M30.372 10.067c-0.067-1.53-0.315-2.582-0.669-3.494-0.366-0.968-0.928-1.834-1.665-2.554-0.72-0.731-1.592-1.3-2.549-1.66-0.917-0.354-1.964-0.602-3.494-0.669-1.542-0.073-2.031-0.090-5.941-0.090s-4.4 0.017-5.936 0.084c-1.53 0.067-2.582 0.315-3.494 0.669-0.968 0.366-1.834 0.928-2.554 1.665-0.731 0.72-1.3 1.592-1.66 2.549-0.354 0.917-0.602 1.963-0.669 3.494-0.073 1.542-0.090 2.031-0.090 5.941s0.017 4.399 0.084 5.935c0.067 1.53 0.315 2.582 0.67 3.494 0.366 0.968 0.934 1.834 1.665 2.554 0.72 0.731 1.592 1.3 2.549 1.66 0.917 0.354 1.963 0.602 3.494 0.669 1.536 0.068 2.025 0.084 5.936 0.084s4.399-0.017 5.936-0.084c1.53-0.067 2.582-0.315 3.494-0.669 1.936-0.748 3.466-2.279 4.214-4.214 0.354-0.917 0.602-1.964 0.669-3.494 0.067-1.536 0.084-2.025 0.084-5.935s-0.006-4.4-0.073-5.936zM27.778 21.826c-0.062 1.406-0.298 2.166-0.495 2.672-0.484 1.255-1.48 2.25-2.734 2.734-0.506 0.197-1.271 0.433-2.672 0.495-1.519 0.068-1.975 0.084-5.817 0.084s-4.304-0.017-5.817-0.084c-1.407-0.062-2.166-0.298-2.672-0.495-0.624-0.231-1.193-0.596-1.654-1.075-0.478-0.467-0.844-1.030-1.075-1.654-0.197-0.506-0.433-1.272-0.495-2.672-0.068-1.519-0.084-1.975-0.084-5.817s0.017-4.304 0.084-5.817c0.062-1.407 0.298-2.166 0.495-2.672 0.231-0.625 0.596-1.193 1.080-1.654 0.467-0.478 1.029-0.844 1.654-1.074 0.506-0.197 1.272-0.433 2.672-0.495 1.519-0.067 1.975-0.084 5.817-0.084 3.848 0 4.304 0.017 5.818 0.084 1.406 0.062 2.166 0.298 2.672 0.495 0.624 0.231 1.193 0.596 1.654 1.074 0.478 0.467 0.844 1.030 1.075 1.654 0.197 0.506 0.433 1.271 0.495 2.672 0.067 1.519 0.084 1.975 0.084 5.817s-0.017 4.293-0.084 5.812z"></path>
<path d="M16.053 8.604c-4.084 0-7.398 3.314-7.398 7.398s3.314 7.398 7.398 7.398c4.085 0 7.398-3.314 7.398-7.398s-3.314-7.398-7.398-7.398zM16.053 20.802c-2.65 0-4.799-2.149-4.799-4.799s2.149-4.799 4.799-4.799c2.65 0 4.799 2.149 4.799 4.799s-2.149 4.799-4.799 4.799v0z"></path>
<path d="M25.471 8.312c0 0.954-0.773 1.727-1.727 1.727s-1.727-0.773-1.727-1.727c0-0.954 0.773-1.727 1.727-1.727s1.727 0.773 1.727 1.727v0z"></path>
</symbol>
<symbol id="icon-linkedin" viewBox="0 0 32 32">
<path d="M30.393 30.4v-0.001h0.007v-10.562c0-5.167-1.112-9.148-7.153-9.148-2.904 0-4.853 1.594-5.648 3.104h-0.084v-2.622h-5.728v19.228h5.964v-9.521c0-2.507 0.475-4.931 3.58-4.931 3.059 0 3.104 2.861 3.104 5.092v9.361h5.958z"></path>
<path d="M2.075 11.172h5.971v19.228h-5.971v-19.228z"></path>
<path d="M5.059 1.6c-1.909 0-3.458 1.549-3.458 3.458s1.549 3.491 3.458 3.491c1.909 0 3.458-1.582 3.458-3.491-0.001-1.909-1.55-3.458-3.458-3.458v0z"></path>
</symbol>
<symbol id="icon-twitter" viewBox="0 0 32 32">
<path d="M30.4 7.070c-1.071 0.47-2.212 0.781-3.402 0.932 1.224-0.731 2.158-1.879 2.597-3.263-1.141 0.68-2.401 1.161-3.744 1.429-1.084-1.154-2.628-1.868-4.313-1.868-3.269 0-5.9 2.653-5.9 5.906 0 0.468 0.040 0.918 0.137 1.346-4.909-0.239-9.252-2.592-12.17-6.176-0.509 0.884-0.808 1.895-0.808 2.984 0 2.045 1.053 3.857 2.623 4.907-0.949-0.018-1.879-0.293-2.668-0.727 0 0.018 0 0.041 0 0.065 0 2.869 2.047 5.252 4.73 5.801-0.481 0.131-1.004 0.194-1.548 0.194-0.378 0-0.76-0.022-1.118-0.101 0.765 2.338 2.936 4.057 5.517 4.113-2.009 1.571-4.559 2.518-7.321 2.518-0.484 0-0.949-0.022-1.413-0.081 2.615 1.687 5.715 2.65 9.058 2.65 10.865 0 16.805-9 16.805-16.801 0-0.261-0.009-0.513-0.022-0.763 1.172-0.832 2.156-1.87 2.959-3.065z"></path>
</symbol>
<symbol id="icon-search" viewBox="0 0 32 32">
<path d="M31.415 28.594l-6.193-6.196c4.634-6.193 3.371-14.97-2.822-19.605s-14.97-3.371-19.605 2.822-3.371 14.97 2.822 19.605c4.975 3.723 11.807 3.723 16.782 0l6.196 6.196c0.779 0.779 2.041 0.779 2.82 0s0.779-2.041 0-2.82v-0.003zM14.059 24.024c-5.504 0-9.966-4.462-9.966-9.966s4.462-9.966 9.966-9.966c5.504 0 9.966 4.462 9.966 9.966-0.006 5.502-4.464 9.96-9.966 9.966z"></path>
</symbol>
<symbol id="icon-calendar" viewBox="0 0 32 32">
<path d="M24.667 2.667h-0.667v-0.667c0-0.53-0.211-1.039-0.586-1.414s-0.884-0.586-1.414-0.586v0c-0.53 0-1.039 0.211-1.414 0.586s-0.586 0.884-0.586 1.414v0.667h-8v-0.667c0-0.53-0.211-1.039-0.586-1.414s-0.884-0.586-1.414-0.586v0c-0.53 0-1.039 0.211-1.414 0.586s-0.586 0.884-0.586 1.414v0.667h-0.667c-1.945 0-3.81 0.773-5.185 2.148s-2.148 3.241-2.148 5.185v14.667c0 1.945 0.773 3.81 2.148 5.185s3.241 2.148 5.185 2.148h17.333c1.945 0 3.81-0.773 5.185-2.148s2.148-3.241 2.148-5.185v-14.667c0-1.945-0.773-3.81-2.148-5.185s-3.241-2.148-5.185-2.148zM24.667 28h-17.333c-0.884 0-1.732-0.351-2.357-0.976s-0.976-1.473-0.976-2.357v-11.333h24v11.333c0 0.884-0.351 1.732-0.976 2.357s-1.473 0.976-2.357 0.976z"></path>
<path d="M24.667 2.667h-0.667v-0.667c0-0.53-0.211-1.039-0.586-1.414s-0.884-0.586-1.414-0.586v0c-0.53 0-1.039 0.211-1.414 0.586s-0.586 0.884-0.586 1.414v0.667h-8v-0.667c0-0.53-0.211-1.039-0.586-1.414s-0.884-0.586-1.414-0.586v0c-0.53 0-1.039 0.211-1.414 0.586s-0.586 0.884-0.586 1.414v0.667h-0.667c-1.945 0-3.81 0.773-5.185 2.148s-2.148 3.241-2.148 5.185v14.667c0 1.945 0.773 3.81 2.148 5.185s3.241 2.148 5.185 2.148h17.333c1.945 0 3.81-0.773 5.185-2.148s2.148-3.241 2.148-5.185v-14.667c0-1.945-0.773-3.81-2.148-5.185s-3.241-2.148-5.185-2.148zM24.667 28h-17.333c-0.884 0-1.732-0.351-2.357-0.976s-0.976-1.473-0.976-2.357v-11.333h24v11.333c0 0.884-0.351 1.732-0.976 2.357s-1.473 0.976-2.357 0.976z"></path>
</symbol>
<symbol id="icon-map" viewBox="0 0 32 32">
<path d="M13.334 10.666c0-0.527 0.156-1.043 0.449-1.482s0.71-0.78 1.197-0.982c0.487-0.202 1.023-0.255 1.541-0.152s0.992 0.357 1.365 0.73c0.373 0.373 0.627 0.848 0.73 1.365s0.050 1.053-0.152 1.541c-0.202 0.487-0.544 0.904-0.982 1.197s-0.954 0.449-1.481 0.449c-0.707 0-1.386-0.281-1.886-0.781s-0.781-1.178-0.781-1.886zM32 17.832v6.865c0.007 0.923-0.198 1.835-0.6 2.666s-0.99 1.558-1.718 2.126c-0.683 0.536-1.48 0.908-2.329 1.086s-1.728 0.16-2.569-0.054c-0.059-0.015-3.104-1.091-3.104-1.091-0.502-0.136-1.032-0.131-1.531 0.015l-7.333 2.275c-0.638 0.185-1.299 0.28-1.963 0.28-0.725 0.001-1.445-0.115-2.133-0.341l-3.652-1.2c-1.482-0.48-2.772-1.42-3.683-2.683s-1.396-2.784-1.385-4.341v-5.435c-0.008-1.005 0.189-2.002 0.581-2.928s0.968-1.762 1.695-2.456c0.867-0.81 1.925-1.389 3.075-1.683-0.027-1.436 0.233-2.863 0.765-4.197s1.325-2.548 2.333-3.571c0.985-1.002 2.161-1.799 3.457-2.342s2.688-0.823 4.094-0.823c1.406 0 2.797 0.28 4.094 0.823s2.472 1.34 3.457 2.342c1.981 2.009 3.096 4.714 3.105 7.536l0.621 0.217c1.396 0.535 2.597 1.484 3.44 2.719s1.291 2.698 1.282 4.193v0.001zM11.295 15.573l4.391 4.293c0.042 0.043 0.092 0.077 0.148 0.1s0.115 0.035 0.175 0.035c0.060 0 0.119-0.012 0.175-0.035s0.106-0.057 0.148-0.1l4.4-4.313c1.249-1.282 1.947-3.002 1.943-4.792s-0.709-3.507-1.964-4.784c-0.614-0.625-1.346-1.122-2.154-1.461s-1.675-0.514-2.551-0.514c-0.876 0-1.744 0.175-2.552 0.514s-1.54 0.836-2.154 1.461c-1.257 1.281-1.961 3.003-1.962 4.797s0.702 3.517 1.958 4.799zM28 17.83c0.012-0.672-0.179-1.331-0.548-1.892s-0.899-0.997-1.521-1.252c-0.529 1.384-1.339 2.644-2.38 3.699l-4.419 4.336c-0.83 0.824-1.952 1.286-3.121 1.286s-2.291-0.462-3.121-1.286l-4.416-4.312c-1.010-1.024-1.805-2.24-2.34-3.575-0.406 0.149-0.777 0.379-1.091 0.677-0.335 0.321-0.6 0.708-0.779 1.136s-0.269 0.888-0.263 1.352v5.433c-0.014 0.707 0.198 1.4 0.606 1.978s0.99 1.010 1.661 1.234l3.701 1.211c0.549 0.181 1.14 0.191 1.696 0.031l7.348-2.277c1.28-0.373 2.64-0.366 3.916 0.020l2.916 1.037c0.241 0.050 0.49 0.046 0.729-0.012s0.463-0.167 0.655-0.32c0.246-0.195 0.444-0.445 0.577-0.729s0.2-0.596 0.195-0.91v-6.865z"></path>
<path d="M13.334 10.666c0-0.527 0.156-1.043 0.449-1.482s0.71-0.78 1.197-0.982c0.487-0.202 1.023-0.255 1.541-0.152s0.992 0.357 1.365 0.73c0.373 0.373 0.627 0.848 0.73 1.365s0.050 1.053-0.152 1.541c-0.202 0.487-0.544 0.904-0.982 1.197s-0.954 0.449-1.481 0.449c-0.707 0-1.386-0.281-1.886-0.781s-0.781-1.178-0.781-1.886zM32 17.832v6.865c0.007 0.923-0.198 1.835-0.6 2.666s-0.99 1.558-1.718 2.126c-0.683 0.536-1.48 0.908-2.329 1.086s-1.728 0.16-2.569-0.054c-0.059-0.015-3.104-1.091-3.104-1.091-0.502-0.136-1.032-0.131-1.531 0.015l-7.333 2.275c-0.638 0.185-1.299 0.28-1.963 0.28-0.725 0.001-1.445-0.115-2.133-0.341l-3.652-1.2c-1.482-0.48-2.772-1.42-3.683-2.683s-1.396-2.784-1.385-4.341v-5.435c-0.008-1.005 0.189-2.002 0.581-2.928s0.968-1.762 1.695-2.456c0.867-0.81 1.925-1.389 3.075-1.683-0.027-1.436 0.233-2.863 0.765-4.197s1.325-2.548 2.333-3.571c0.985-1.002 2.161-1.799 3.457-2.342s2.688-0.823 4.094-0.823c1.406 0 2.797 0.28 4.094 0.823s2.472 1.34 3.457 2.342c1.981 2.009 3.096 4.714 3.105 7.536l0.621 0.217c1.396 0.535 2.597 1.484 3.44 2.719s1.291 2.698 1.282 4.193v0.001zM11.295 15.573l4.391 4.293c0.042 0.043 0.092 0.077 0.148 0.1s0.115 0.035 0.175 0.035c0.060 0 0.119-0.012 0.175-0.035s0.106-0.057 0.148-0.1l4.4-4.313c1.249-1.282 1.947-3.002 1.943-4.792s-0.709-3.507-1.964-4.784c-0.614-0.625-1.346-1.122-2.154-1.461s-1.675-0.514-2.551-0.514c-0.876 0-1.744 0.175-2.552 0.514s-1.54 0.836-2.154 1.461c-1.257 1.281-1.961 3.003-1.962 4.797s0.702 3.517 1.958 4.799zM28 17.83c0.012-0.672-0.179-1.331-0.548-1.892s-0.899-0.997-1.521-1.252c-0.529 1.384-1.339 2.644-2.38 3.699l-4.419 4.336c-0.83 0.824-1.952 1.286-3.121 1.286s-2.291-0.462-3.121-1.286l-4.416-4.312c-1.010-1.024-1.805-2.24-2.34-3.575-0.406 0.149-0.777 0.379-1.091 0.677-0.335 0.321-0.6 0.708-0.779 1.136s-0.269 0.888-0.263 1.352v5.433c-0.014 0.707 0.198 1.4 0.606 1.978s0.99 1.010 1.661 1.234l3.701 1.211c0.549 0.181 1.14 0.191 1.696 0.031l7.348-2.277c1.28-0.373 2.64-0.366 3.916 0.020l2.916 1.037c0.241 0.050 0.49 0.046 0.729-0.012s0.463-0.167 0.655-0.32c0.246-0.195 0.444-0.445 0.577-0.729s0.2-0.596 0.195-0.91v-6.865z"></path>
</symbol>
<symbol id="icon-arrow-right" viewBox="0 0 32 32">
<path d="M21 12.7l-6.115-6.115c-0.375-0.375-0.884-0.586-1.414-0.585s-1.039 0.211-1.414 0.586-0.586 0.884-0.585 1.414c0 0.53 0.211 1.039 0.586 1.414l6.115 6.113c0.062 0.062 0.111 0.135 0.145 0.217s0.051 0.168 0.051 0.255-0.017 0.175-0.051 0.255c-0.034 0.081-0.083 0.155-0.145 0.217l-6.115 6.113c-0.375 0.375-0.586 0.884-0.586 1.414s0.21 1.039 0.585 1.414 0.884 0.586 1.414 0.586c0.531 0 1.039-0.21 1.414-0.585l6.115-6.115c0.874-0.876 1.364-2.063 1.364-3.3s-0.491-2.424-1.364-3.3z"></path>
</symbol>
  </defs>
</svg>