<svg width="32" height="32" viewBox="0 0 32 32" fill="none" xmlns="http://www.w3.org/2000/svg">
<path d="M30 14H2C0.895437 14 0 14.8954 0 16C0 17.1046 0.895437 18 2 18H30C31.1046 18 32 17.1046 32 16C32 14.8954 31.1046 14 30 14Z" fill="#374957"/>
<path d="M2 8.66676H30C31.1046 8.66676 32 7.77132 32 6.66675C32 5.56219 31.1046 4.66675 30 4.66675H2C0.895437 4.66675 0 5.56219 0 6.66675C0 7.77132 0.895437 8.66676 2 8.66676Z" fill="#374957"/>
<path d="M30 23.3334H2C0.895437 23.3334 0 24.2288 0 25.3334C0 26.4379 0.895437 27.3334 2 27.3334H30C31.1046 27.3334 32 26.4379 32 25.3334C32 24.2288 31.1046 23.3334 30 23.3334Z" fill="#374957"/>
</svg>
