<svg width="16" height="16" viewBox="0 0 16 16" fill="none" xmlns="http://www.w3.org/2000/svg">
<g clip-path="url(#clip0_241_441)">
<path d="M15.1858 5.03369C15.1521 4.26856 15.0283 3.74254 14.8511 3.28674C14.6682 2.80292 14.3869 2.36975 14.0184 2.00966C13.6583 1.64396 13.2223 1.3598 12.7441 1.17981C12.2856 1.00257 11.7623 0.878836 10.9972 0.845102C10.2264 0.80851 9.98166 0.800049 8.0266 0.800049C6.07153 0.800049 5.82681 0.80851 5.05883 0.842245C4.2937 0.875979 3.76769 0.999819 3.31199 1.17695C2.82806 1.3598 2.3949 1.64111 2.03481 2.00966C1.66911 2.36975 1.38506 2.80578 1.20496 3.28399C1.02771 3.74254 0.903983 4.2657 0.870248 5.03083C0.833656 5.80167 0.825195 6.04639 0.825195 8.00146C0.825195 9.95653 0.833656 10.2012 0.867391 10.9692C0.901126 11.7344 1.02497 12.2604 1.20221 12.7162C1.38506 13.2 1.66911 13.6332 2.03481 13.9933C2.3949 14.3589 2.83092 14.6431 3.30914 14.8231C3.76769 15.0003 4.29085 15.1241 5.05608 15.1578C5.82396 15.1917 6.06878 15.2 8.02385 15.2C9.97892 15.2 10.2236 15.1917 10.9916 15.1578C11.7567 15.1241 12.2828 15.0003 12.7384 14.8231C13.7062 14.4489 14.4713 13.6838 14.8455 12.7162C15.0226 12.2576 15.1465 11.7344 15.1802 10.9692C15.2139 10.2012 15.2224 9.95653 15.2224 8.00146C15.2224 6.04639 15.2195 5.80167 15.1858 5.03369ZM13.8891 10.913C13.8581 11.6162 13.7399 11.996 13.6415 12.2492C13.3995 12.8765 12.9016 13.3744 12.2743 13.6163C12.0211 13.7148 11.6386 13.8329 10.9381 13.8638C10.1786 13.8977 9.95079 13.906 8.02945 13.906C6.10812 13.906 5.87747 13.8977 5.1207 13.8638C4.41743 13.8329 4.03767 13.7148 3.7845 13.6163C3.47232 13.501 3.18815 13.3181 2.95751 13.079C2.7184 12.8455 2.53555 12.5642 2.42017 12.252C2.32171 11.9988 2.20359 11.6162 2.17271 10.9158C2.13887 10.1563 2.13051 9.92839 2.13051 8.00706C2.13051 6.08573 2.13887 5.85508 2.17271 5.09841C2.20359 4.39515 2.32171 4.01539 2.42017 3.76221C2.53555 3.44992 2.7184 3.16587 2.96036 2.93511C3.19376 2.696 3.47506 2.51315 3.78736 2.39788C4.04053 2.29943 4.42315 2.1813 5.12355 2.15031C5.88308 2.11658 6.11098 2.10812 8.0322 2.10812C9.95639 2.10812 10.1842 2.11658 10.941 2.15031C11.6442 2.1813 12.024 2.29943 12.2772 2.39788C12.5893 2.51315 12.8735 2.696 13.1041 2.93511C13.3433 3.16861 13.5261 3.44992 13.6415 3.76221C13.7399 4.01539 13.8581 4.3979 13.8891 5.09841C13.9228 5.85793 13.9312 6.08573 13.9312 8.00706C13.9312 9.92839 13.9228 10.1534 13.8891 10.913Z" fill="#F4F4FD"/>
<path d="M8.02667 4.30225C5.98447 4.30225 4.32751 5.95909 4.32751 8.0014C4.32751 10.0437 5.98447 11.7006 8.02667 11.7006C10.069 11.7006 11.7258 10.0437 11.7258 8.0014C11.7258 5.95909 10.069 4.30225 8.02667 4.30225ZM8.02667 10.401C6.70179 10.401 5.62712 9.32639 5.62712 8.0014C5.62712 6.67642 6.70179 5.60185 8.02667 5.60185C9.35166 5.60185 10.4262 6.67642 10.4262 8.0014C10.4262 9.32639 9.35166 10.401 8.02667 10.401V10.401Z" fill="#F4F4FD"/>
<path d="M12.7357 4.15607C12.7357 4.63297 12.349 5.01965 11.872 5.01965C11.3951 5.01965 11.0084 4.63297 11.0084 4.15607C11.0084 3.67906 11.3951 3.29248 11.872 3.29248C12.349 3.29248 12.7357 3.67906 12.7357 4.15607V4.15607Z" fill="#F4F4FD"/>
</g>
<defs>
<clipPath id="clip0_241_441">
<rect width="14.4" height="14.4" fill="white" transform="translate(0.799927 0.800049)"/>
</clipPath>
</defs>
</svg>
