<svg width="16" height="16" viewBox="0 0 16 16" fill="none" xmlns="http://www.w3.org/2000/svg">
<g clip-path="url(#clip0_241_362)">
<path d="M15.1964 15.2001V15.1995H15.2V9.91828C15.2 7.33468 14.6438 5.34448 11.6234 5.34448C10.1714 5.34448 9.19704 6.14128 8.79924 6.89668H8.75724V5.58568H5.89343V15.1995H8.87543V10.4391C8.87543 9.18568 9.11304 7.97368 10.6652 7.97368C12.1946 7.97368 12.2174 9.40408 12.2174 10.5195V15.2001H15.1964Z" fill="#688990"/>
<path d="M1.0376 5.58618H4.0232V15.2H1.0376V5.58618Z" fill="#688990"/>
<path d="M2.52925 0.800049C1.57465 0.800049 0.800049 1.57465 0.800049 2.52925C0.800049 3.48385 1.57465 4.27465 2.52925 4.27465C3.48385 4.27465 4.25845 3.48385 4.25845 2.52925C4.25785 1.57465 3.48325 0.800049 2.52925 0.800049V0.800049Z" fill="#688990"/>
</g>
<defs>
<clipPath id="clip0_241_362">
<rect width="14.4" height="14.4" fill="white" transform="translate(0.800049 0.800049)"/>
</clipPath>
</defs>
</svg>
