<svg width="16" height="16" viewBox="0 0 16 16" fill="none" xmlns="http://www.w3.org/2000/svg">
<g clip-path="url(#clip0_241_472)">
<path d="M15.1999 3.53512C14.6644 3.77002 14.0938 3.92572 13.4989 4.00132C14.1109 3.63592 14.578 3.06172 14.7976 2.36962C14.227 2.70982 13.597 2.95012 12.9256 3.08422C12.3838 2.50732 11.6116 2.15002 10.7692 2.15002C9.13483 2.15002 7.81903 3.47662 7.81903 5.10292C7.81903 5.33692 7.83883 5.56192 7.88743 5.77612C5.43313 5.65642 3.26143 4.48012 1.80253 2.68822C1.54783 3.13012 1.39843 3.63592 1.39843 4.18042C1.39843 5.20282 1.92493 6.10912 2.70973 6.63382C2.23543 6.62482 1.77013 6.48712 1.37593 6.27022C1.37593 6.27922 1.37593 6.29092 1.37593 6.30262C1.37593 7.73722 2.39923 8.92882 3.74113 9.20332C3.50083 9.26902 3.23893 9.30052 2.96713 9.30052C2.77813 9.30052 2.58733 9.28972 2.40823 9.25012C2.79073 10.4192 3.87613 11.2787 5.16673 11.3066C4.16233 12.0923 2.88703 12.5657 1.50643 12.5657C1.26433 12.5657 1.03213 12.5549 0.799927 12.5252C2.10763 13.3685 3.65743 13.85 5.32873 13.85C10.7611 13.85 13.7311 9.35002 13.7311 5.44942C13.7311 5.31892 13.7266 5.19292 13.7203 5.06782C14.3062 4.65202 14.7985 4.13272 15.1999 3.53512Z" fill="white"/>
</g>
<defs>
<clipPath id="clip0_241_472">
<rect width="14.4" height="14.4" fill="white" transform="translate(0.799927 0.800049)"/>
</clipPath>
</defs>
</svg>
